<?xml version="1.0" encoding="UTF-8"?>
<svg id="Ebene_1" data-name="Ebene 1" xmlns="http://www.w3.org/2000/svg" viewBox="0 0 402 405.49">
  <defs>
    <style>
      .cls-1 {
        fill: #1e1e1c;
      }

      .cls-2 {
        fill: #cdad6b;
      }
    </style>
  </defs>
  <path class="cls-1" d="M201.01,167.78l-57.06,28.02c-.26.05-.51.08-.76.08-.12,0-.22-.05-.33-.06v57.83l56.69,9.54,59.62-9.54v-58.21l-58.15-27.66Z"/>
  <path class="cls-1" d="M201.49,136.9l-58.64,30.68v21.07l57.38-28.09c.49-.1.99-.1,1.48,0l57.44,27.53v-20.5l-57.66-30.68Z"/>
  <path class="cls-2" d="M202.89,65.7c-.68-1.12-1.89-1.79-3.24-1.79h0c-1.35,0-2.56.67-3.24,1.79-7.05,11.59-18.87,32.29-18.87,40.77,0,11.46,9.92,20.78,22.11,20.78s22.11-9.32,22.11-20.78c0-8.48-11.82-29.18-18.87-40.77Z"/>
  <path class="cls-2" d="M199.17,285.46c-12.19,0-22.11,9.32-22.11,20.78,0,8.49,11.82,29.19,18.87,40.77.68,1.12,1.89,1.79,3.24,1.79h0c1.35,0,2.56-.67,3.24-1.79,7.05-11.58,18.87-32.28,18.87-40.77,0-11.46-9.92-20.78-22.11-20.78Z"/>
  <path class="cls-2" d="M340.55,202.39c-11.58-7.05-32.29-18.87-40.77-18.87-11.46,0-20.78,9.92-20.78,22.11s9.32,22.11,20.78,22.11c8.49,0,29.19-11.82,40.77-18.87,1.12-.68,1.79-1.89,1.79-3.24,0-1.35-.67-2.56-1.78-3.24Z"/>
  <path class="cls-2" d="M301.75,303.14c-3.21-13.18-9.49-36.18-15.49-42.17-3.93-3.93-9.27-6.06-15.01-5.8-5.72.19-11.16,2.58-15.32,6.74-4.16,4.16-6.55,9.6-6.74,15.32-.19,5.75,1.87,11.08,5.8,15.01,6,6,29,12.28,42.17,15.49.29.07.58.1.87.1.98,0,1.95-.4,2.68-1.13.95-.96,1.34-2.28,1.03-3.55Z"/>
  <path class="cls-2" d="M299.27,106.01c-.95-.96-2.29-1.34-3.55-1.03-13.18,3.21-36.17,9.49-42.17,15.48-3.93,3.93-5.99,9.26-5.8,15.01.19,5.72,2.58,11.16,6.74,15.32,4.49,4.49,10.32,6.75,16.03,6.75,5.26,0,10.41-1.93,14.3-5.81,6-6,12.28-29,15.49-42.17.31-1.27-.08-2.6-1.03-3.55Z"/>
  <path class="cls-2" d="M101.56,183.52c-8.48,0-29.19,11.82-40.77,18.87-1.12.68-1.78,1.89-1.78,3.24,0,1.35.67,2.56,1.78,3.24,11.58,7.05,32.28,18.87,40.77,18.87,11.46,0,20.78-9.92,20.78-22.11s-9.32-22.11-20.78-22.11Z"/>
  <path class="cls-2" d="M145.4,261.92c-4.16-4.16-9.6-6.55-15.32-6.74-5.73-.24-11.08,1.87-15.01,5.8-6,6-12.28,28.99-15.49,42.17-.31,1.27.07,2.6,1.03,3.55.74.74,1.7,1.13,2.68,1.13.29,0,.58-.03.87-.11,13.18-3.21,36.17-9.49,42.17-15.48,8.1-8.1,7.68-21.71-.94-30.33Z"/>
  <path class="cls-2" d="M147.79,120.47c-6-6-29-12.28-42.17-15.48-1.27-.31-2.6.07-3.55,1.03-.95.96-1.34,2.28-1.03,3.55,3.21,13.18,9.49,36.17,15.49,42.17,3.76,3.76,8.81,5.81,14.28,5.81.24,0,.48,0,.73-.01,5.72-.19,11.16-2.58,15.32-6.74,4.16-4.16,6.55-9.6,6.74-15.32.19-5.75-1.87-11.08-5.8-15.01Z"/>
  <path class="cls-2" d="M320.11,370.52c-9.01,10.65-24.99,11.98-35.64,2.97-8.42-7.13-20.35-38.05-25.14-51.16-.76-2.07,1.02-4.17,3.19-3.77,13.73,2.55,46.2,9.2,54.62,16.32,10.65,9.01,11.98,24.99,2.97,35.64Z"/>
  <path class="cls-2" d="M233.44,404.41c-13.9-1.06-24.35-13.24-23.29-27.14.84-11,18.91-38.78,26.74-50.35,1.24-1.83,3.98-1.62,4.93.38,5.97,12.62,19.61,42.83,18.77,53.83-1.06,13.9-13.24,24.35-27.14,23.29Z"/>
  <path class="cls-2" d="M233.64,1.01c13.94-.44,25.64,10.53,26.08,24.47.35,11.03-14.61,40.6-21.14,52.94-1.03,1.95-3.78,2.04-4.94.16-7.3-11.9-24.12-40.46-24.47-51.49-.44-13.94,10.53-25.64,24.47-26.08Z"/>
  <path class="cls-2" d="M316.87,42.65c8.52,11.04,6.48,26.95-4.55,35.47-8.73,6.74-41.46,11.94-55.29,13.88-2.18.31-3.87-1.87-3.02-3.91,5.37-12.89,18.66-43.25,27.39-49.99,11.04-8.52,26.95-6.48,35.47,4.55Z"/>
  <path class="cls-2" d="M400.8,234.86c1.74,13.84-8.1,26.51-21.93,28.25-10.95,1.38-41.78-10.77-54.68-16.11-2.04-.84-2.38-3.58-.62-4.9,11.17-8.38,38.04-27.79,48.98-29.17,13.84-1.74,26.51,8.1,28.25,21.93Z"/>
  <path class="cls-2" d="M367.1,321.61c-10.19,9.52-26.23,8.97-35.74-1.23-7.53-8.06-15.75-40.17-18.97-53.76-.51-2.15,1.51-4.03,3.61-3.37,13.34,4.15,44.8,14.55,52.33,22.61,9.52,10.19,8.97,26.23-1.23,35.74Z"/>
  <path class="cls-2" d="M362.71,86.35c10.85,8.76,12.55,24.71,3.79,35.56-6.93,8.58-37.57,21.22-50.57,26.31-2.05.8-4.2-.93-3.84-3.1,2.24-13.78,8.14-46.4,15.07-54.98,8.76-10.85,24.71-12.55,35.56-3.79Z"/>
  <path class="cls-2" d="M398.59,172.22c-.75,13.92-12.68,24.65-26.6,23.9-11.02-.59-39.2-18.02-50.95-25.58-1.85-1.19-1.71-3.94.26-4.93,12.48-6.26,42.37-20.58,53.39-19.99,13.92.75,24.65,12.68,23.9,26.6Z"/>
  <path class="cls-2" d="M84.86,334.88c8.42-7.13,40.89-13.77,54.62-16.32,2.17-.4,3.95,1.7,3.19,3.77-4.79,13.12-16.72,44.04-25.14,51.16-10.65,9.01-26.63,7.67-35.64-2.97-9.01-10.65-7.67-26.63,2.97-35.64Z"/>
  <path class="cls-2" d="M141.42,381.13c-.84-11,12.79-41.21,18.77-53.83.94-1.99,3.69-2.2,4.93-.38,7.82,11.57,25.9,39.35,26.74,50.35,1.06,13.9-9.38,26.08-23.29,27.14-13.9,1.06-26.08-9.38-27.14-23.29Z"/>
  <path class="cls-2" d="M192.83,27.09c-.35,11.03-17.17,39.58-24.47,51.49-1.15,1.88-3.91,1.79-4.94-.16-6.53-12.35-21.49-41.92-21.14-52.94.44-13.94,12.14-24.91,26.08-24.47,13.94.44,24.91,12.14,24.47,26.08Z"/>
  <path class="cls-2" d="M120.6,38.1c8.73,6.74,22.02,37.1,27.39,49.99.85,2.04-.84,4.22-3.02,3.91-13.83-1.94-46.56-7.13-55.29-13.88-11.04-8.52-13.08-24.44-4.55-35.47,8.52-11.04,24.44-13.08,35.47-4.55Z"/>
  <path class="cls-2" d="M29.45,212.92c10.95,1.38,37.81,20.79,48.98,29.17,1.76,1.32,1.42,4.06-.62,4.9-12.9,5.35-43.74,17.49-54.68,16.11-13.84-1.74-23.67-14.41-21.93-28.25,1.74-13.84,14.41-23.67,28.25-21.93Z"/>
  <path class="cls-2" d="M33.67,285.86c7.53-8.06,39-18.47,52.33-22.61,2.11-.65,4.12,1.23,3.61,3.37-3.22,13.59-11.44,45.69-18.97,53.76-9.52,10.19-25.55,10.74-35.74,1.23-10.19-9.52-10.74-25.55-1.23-35.74Z"/>
  <path class="cls-2" d="M74.85,90.13c6.93,8.58,12.83,41.2,15.07,54.98.35,2.18-1.79,3.91-3.84,3.1-13-5.09-43.64-17.73-50.57-26.31-8.76-10.85-7.06-26.8,3.79-35.56,10.85-8.76,26.8-7.06,35.56,3.79Z"/>
  <path class="cls-2" d="M27.31,145.62c11.02-.59,40.9,13.73,53.39,19.99,1.97.99,2.12,3.74.26,4.93-11.74,7.56-39.93,24.99-50.95,25.58-13.92.75-25.86-9.98-26.6-23.9-.75-13.92,9.98-25.86,23.9-26.6Z"/>
</svg>